<?xml version="1.0" standalone="no"?>
<!DOCTYPE svg PUBLIC "-//W3C//DTD SVG 20010904//EN"
 "http://www.w3.org/TR/2001/REC-SVG-20010904/DTD/svg10.dtd">
<svg version="1.0" xmlns="http://www.w3.org/2000/svg"
 width="256.000000pt" height="256.000000pt" viewBox="0 0 256.000000 256.000000"
 preserveAspectRatio="xMidYMid meet">

<g transform="translate(0.000000,256.000000) scale(0.100000,-0.100000)"
fill="#A2D2FF" stroke="none">
<path d="M1116 2549 c-483 -67 -895 -404 -1046 -857 -50 -152 -64 -242 -64
-412 0 -171 14 -260 65 -415 121 -362 433 -673 797 -795 152 -50 242 -64 412
-64 274 0 482 62 710 212 277 183 475 480 547 822 24 117 24 363 0 480 -57
271 -178 492 -371 678 -182 175 -391 286 -641 337 -96 20 -314 28 -409 14z
m219 -772 c9 -22 10 -39 3 -57 -5 -14 -84 -100 -176 -192 l-167 -168 435 0
c326 -1 439 -4 451 -13 44 -34 47 -89 7 -127 -21 -19 -34 -20 -457 -20 l-436
0 167 -167 c92 -93 171 -179 176 -193 24 -62 -42 -122 -104 -95 -16 7 -134
118 -261 247 l-233 234 0 54 0 54 233 234 c127 129 245 240 261 247 41 18 84
1 101 -38z"/>
</g>
</svg>
