<?xml version="1.0" standalone="no"?>
<!DOCTYPE svg PUBLIC "-//W3C//DTD SVG 20010904//EN"
 "http://www.w3.org/TR/2001/REC-SVG-20010904/DTD/svg10.dtd">
<svg version="1.0" xmlns="http://www.w3.org/2000/svg"
 viewBox="0 0 128.000000 128.000000"
 preserveAspectRatio="xMidYMid meet">

<g transform="translate(0.000000,128.000000) scale(0.100000,-0.100000)"
fill="#000000" stroke="none">
<path d="M887 1181 c-89 -87 -99 -101 -93 -125 11 -44 53 -35 111 24 l50 51 5
-172 c4 -149 7 -173 23 -183 12 -8 22 -8 35 0 15 10 18 34 22 183 l5 172 50
-51 c58 -59 100 -68 111 -24 6 24 -4 38 -93 125 -55 55 -106 99 -113 99 -7 0
-58 -44 -113 -99z"/>
<path d="M200 1151 c-76 -23 -147 -89 -171 -157 -20 -56 -20 -652 0 -708 17
-49 73 -111 125 -139 40 -21 53 -22 415 -25 421 -3 439 -1 508 67 72 69 78 93
78 295 0 159 -2 180 -17 190 -32 20 -52 -4 -58 -67 l-5 -57 -45 37 c-78 62
-144 88 -230 88 -105 0 -185 -40 -285 -141 -61 -62 -224 -285 -237 -325 -6
-17 -69 -3 -109 24 -18 12 -42 38 -53 57 -20 33 -21 54 -24 327 -3 306 1 349
40 398 45 57 81 65 315 65 116 0 218 3 227 6 21 8 21 60 0 68 -23 9 -444 6
-474 -3z m698 -576 c30 -14 82 -53 118 -86 60 -58 64 -65 64 -106 0 -24 -6
-58 -14 -76 -17 -43 -78 -95 -118 -102 -18 -3 -156 -4 -306 -3 l-274 3 60 92
c83 126 188 235 265 273 76 38 132 39 205 5z"/>
<path d="M313 931 c-114 -53 -112 -212 3 -262 71 -32 144 -7 183 61 69 122
-59 260 -186 201z m102 -86 c27 -26 31 -46 15 -75 -17 -32 -48 -43 -81 -30
-48 20 -52 96 -7 118 35 16 47 14 73 -13z"/>
</g>
</svg>
